<?xml version="1.0" standalone="no"?>
<!DOCTYPE svg PUBLIC "-//W3C//DTD SVG 20010904//EN"
 "http://www.w3.org/TR/2001/REC-SVG-20010904/DTD/svg10.dtd">
<svg version="1.0" xmlns="http://www.w3.org/2000/svg"
 width="840.000000pt" height="388.000000pt" viewBox="0 0 840.000000 388.000000"
 preserveAspectRatio="xMidYMid meet">

<g transform="translate(0.000000,388.000000) scale(0.100000,-0.100000)"
fill="#000000" stroke="none">
<path d="M3455 3210 c-346 -132 -682 -260 -745 -284 l-115 -43 -3 -324 c-1
-178 -6 -327 -10 -331 -4 -4 -85 -21 -180 -37 -95 -17 -177 -33 -182 -36 -6
-4 -10 -64 -10 -140 0 -129 -1 -133 -22 -138 -13 -3 -99 -20 -193 -37 -93 -18
-173 -34 -177 -37 -11 -6 -10 -821 1 -827 5 -3 174 26 376 64 203 39 374 70
382 70 9 0 13 -13 13 -39 0 -22 4 -43 10 -46 9 -5 240 -93 990 -377 146 -55
340 -129 432 -164 92 -35 176 -64 186 -64 17 0 284 99 932 347 107 41 260 99
340 129 80 31 189 72 243 92 l97 36 0 348 c0 202 4 349 9 353 8 4 285 58 679
132 l82 16 0 418 c0 231 -1 419 -2 419 -2 0 -92 -17 -200 -38 -109 -22 -200
-36 -203 -34 -3 3 -5 54 -5 114 0 85 -3 108 -14 108 -7 0 -85 -13 -172 -30
-88 -16 -162 -30 -166 -30 -4 0 -8 19 -10 41 l-3 42 -285 109 c-157 59 -373
142 -480 183 -107 40 -314 119 -459 174 l-264 101 -121 0 -121 -1 -630 -239z
m841 156 c49 -19 348 -132 664 -251 316 -119 617 -233 668 -252 79 -31 92 -39
92 -59 0 -20 -6 -23 -52 -29 -51 -6 -78 3 -757 259 -387 147 -709 266 -714
266 -6 0 -329 -120 -719 -267 l-708 -267 0 -253 c0 -194 -3 -255 -12 -258 -7
-2 -30 -6 -50 -10 l-38 -6 0 294 0 293 408 154 c224 85 562 213 752 286 190
72 352 132 361 133 10 1 57 -14 105 -33z m-62 -335 c35 -68 35 -69 83 -75 26
-4 61 -9 77 -12 l28 -6 -56 -57 -55 -56 11 -68 c6 -37 9 -70 6 -73 -4 -3 -34
9 -69 27 l-63 31 -64 -31 c-35 -18 -67 -30 -69 -27 -3 3 0 35 6 72 l12 67 -52
53 c-29 30 -50 56 -47 60 4 3 38 10 76 16 l70 11 33 69 c18 37 34 68 36 68 1
0 18 -31 37 -69z m935 -543 c25 -120 100 -562 96 -566 -2 -2 -21 -6 -43 -9
l-39 -5 -11 48 c-6 27 -22 114 -36 194 -14 80 -35 196 -46 259 -22 126 -21
131 37 131 30 0 32 -2 42 -52z m-150 -286 c30 -170 50 -307 45 -311 -5 -5 -23
-11 -41 -14 l-32 -6 -69 127 c-39 70 -84 154 -101 187 -18 33 -30 49 -27 35 3
-14 15 -72 26 -130 12 -58 27 -133 35 -168 12 -59 12 -63 -6 -73 -11 -6 -32
-9 -46 -7 -26 3 -27 6 -55 163 -15 88 -39 225 -54 303 -14 79 -23 146 -20 149
2 3 22 7 43 10 l38 4 40 -73 c21 -40 66 -122 98 -183 32 -60 56 -101 53 -91
-11 33 -56 265 -62 321 -7 53 -6 53 22 58 60 9 55 22 113 -301z m-479 215 c0
-6 36 -142 80 -301 44 -159 78 -291 76 -294 -2 -2 -22 -6 -44 -9 l-40 -5 -37
158 c-20 88 -41 170 -45 184 -5 15 -9 -51 -9 -166 -1 -165 -3 -193 -17 -198
-43 -16 -48 -9 -116 162 -75 185 -76 184 -49 -36 16 -136 16 -144 0 -153 -25
-13 -69 -11 -69 4 -1 6 -14 147 -29 312 -16 165 -27 302 -25 304 2 2 20 4 40
5 l37 1 49 -120 c27 -66 62 -154 78 -195 l29 -75 0 212 c1 159 4 213 14 216
25 11 77 7 77 -6z m-456 -94 c31 -153 77 -445 77 -488 1 -88 -41 -131 -139
-141 -61 -7 -106 20 -131 79 -24 55 -107 516 -95 527 5 5 25 10 44 12 l35 3
33 -185 c59 -339 69 -365 129 -344 41 14 40 55 -1 290 -20 109 -38 213 -41
231 -6 34 2 39 57 42 21 1 27 -4 32 -26z m-450 -342 c25 -139 46 -254 48 -256
2 -1 31 2 66 8 34 5 64 8 66 6 2 -2 6 -20 8 -39 l3 -35 -108 -19 c-59 -11
-109 -17 -112 -14 -5 4 -102 543 -107 596 -3 25 0 27 37 32 30 4 42 1 47 -10
4 -8 27 -129 52 -269z m-302 157 c95 -228 210 -519 207 -522 -2 -2 -22 -6 -45
-9 -39 -6 -40 -6 -53 31 -32 88 -23 81 -88 68 l-58 -12 -3 -61 c-3 -65 -10
-73 -70 -73 -23 0 -24 2 -18 58 3 31 8 138 11 237 3 99 8 219 11 267 6 84 7
87 33 91 14 2 29 5 32 6 4 0 22 -36 41 -81z m2388 -627 l0 -430 -52 -19 c-29
-11 -273 -103 -543 -205 -269 -101 -588 -221 -707 -266 l-217 -82 -765 287
-766 287 0 158 c0 174 -6 159 68 174 l32 7 0 -140 0 -140 715 -267 c393 -147
721 -265 727 -263 7 3 234 88 503 189 l490 184 -55 5 -55 5 0 95 c0 82 2 95
18 98 15 3 17 -6 17 -82 l0 -86 44 0 c30 0 46 -5 48 -14 2 -11 31 -4 128 33
69 26 158 60 197 75 l73 28 2 391 3 391 25 7 c14 4 35 7 48 8 l22 1 0 -429z
m-2169 9 c25 -14 26 -45 2 -35 -46 18 -78 16 -106 -5 -31 -25 -36 -63 -11 -99
15 -21 22 -23 76 -18 51 5 59 3 56 -11 -2 -11 -19 -20 -46 -26 -117 -25 -187
111 -95 184 28 22 91 27 124 10z m89 -74 l0 -85 43 -3 c29 -2 42 -8 42 -18 0
-12 -13 -15 -60 -15 l-60 0 -3 89 c-3 99 0 116 23 116 12 0 15 -15 15 -84z
m230 69 c0 -11 -11 -15 -40 -15 -38 0 -40 -2 -40 -30 0 -28 2 -30 40 -30 29 0
40 -4 40 -15 0 -11 -11 -15 -40 -15 -36 0 -40 -3 -40 -24 0 -22 5 -25 43 -28
29 -2 42 -8 42 -18 0 -12 -13 -15 -60 -15 l-60 0 -3 89 c-2 49 -1 95 2 103 8
20 116 18 116 -2z m76 -52 l30 -68 28 68 c16 37 35 67 43 67 7 0 13 -5 13 -10
0 -23 -76 -190 -85 -187 -10 4 -83 163 -84 185 -1 6 5 12 12 12 7 0 27 -30 43
-67z m264 53 c0 -10 -14 -16 -42 -18 -38 -3 -43 -6 -43 -28 0 -22 5 -25 38
-28 53 -5 51 -32 -3 -32 -36 0 -40 -2 -40 -25 0 -23 4 -25 46 -25 38 0 45 -3
42 -17 -3 -15 -14 -18 -58 -18 l-55 0 -3 103 -3 102 61 0 c46 0 60 -3 60 -14z
m68 -74 l3 -82 40 0 c33 0 40 -3 37 -17 -3 -15 -14 -18 -58 -18 l-55 0 -3 103
c-2 95 -1 103 15 100 15 -3 18 -16 21 -86z m246 -12 c24 -52 42 -98 39 -102
-9 -16 -23 -7 -38 22 -14 26 -21 30 -58 30 -38 0 -44 -3 -54 -31 -12 -30 -41
-37 -35 -8 10 48 78 189 90 187 7 -2 33 -46 56 -98z m158 28 l67 -73 1 73 c0
57 3 72 15 72 12 0 15 -18 15 -105 0 -59 -4 -105 -9 -105 -6 0 -38 32 -72 70
-35 39 -66 70 -69 70 -4 0 -6 -30 -6 -67 1 -54 -2 -68 -14 -68 -20 0 -28 205
-8 205 7 0 43 -32 80 -72z m278 57 c36 -19 52 -47 52 -92 0 -59 -60 -103 -142
-103 l-40 0 0 105 0 105 50 0 c28 0 64 -7 80 -15z m-1292 -338 c24 -19 11 -25
-47 -20 -53 5 -60 3 -75 -18 -37 -54 -6 -119 57 -119 19 0 36 3 40 6 9 10 -4
34 -19 34 -8 0 -14 7 -14 15 0 10 11 15 35 15 35 0 35 0 35 -44 0 -50 -12 -59
-81 -58 -49 1 -75 15 -94 52 -20 39 -19 66 6 106 29 48 114 65 157 31z m436
13 c40 -15 33 -38 -10 -36 -51 1 -53 -18 -5 -48 48 -30 59 -58 36 -92 -14 -21
-23 -25 -58 -22 -35 3 -43 7 -45 26 -3 21 -1 22 17 13 61 -33 86 12 26 49 -35
22 -52 57 -41 85 4 12 22 24 53 34 1 1 13 -3 27 -9z m229 -7 c4 -2 7 -11 7
-18 0 -11 -10 -13 -45 -8 -63 8 -95 -14 -95 -67 0 -29 6 -43 22 -54 26 -18 70
-21 98 -6 25 13 38 -7 17 -27 -17 -17 -96 -20 -126 -4 -25 14 -51 61 -51 93 0
38 36 86 72 97 30 8 81 6 101 -6z m411 3 c71 -30 90 -114 37 -167 -25 -24 -38
-29 -79 -29 -81 0 -127 59 -102 134 13 40 27 54 67 66 39 12 40 12 77 -4z
m251 0 c35 -15 65 -59 65 -96 0 -92 -124 -138 -191 -71 -52 52 -34 137 35 167
40 17 49 17 91 0z m-1763 -39 l-4 -37 56 0 56 0 0 40 c0 34 3 40 20 40 20 0
21 -5 18 -97 -3 -84 -6 -98 -20 -101 -15 -3 -18 4 -18 37 l0 41 -55 0 -56 0 3
-37 c2 -29 -1 -38 -14 -41 -16 -3 -18 7 -18 98 0 91 2 101 18 98 13 -3 16 -12
14 -41z m218 -57 c0 -82 -3 -100 -15 -100 -12 0 -15 18 -15 100 0 82 3 100 15
100 12 0 15 -18 15 -100z m310 60 l0 -40 50 0 50 0 0 40 c0 33 3 40 20 40 19
0 20 -7 20 -100 0 -93 -1 -100 -20 -100 -17 0 -20 7 -20 40 l0 40 -50 0 -50 0
0 -40 c0 -33 -3 -40 -20 -40 -19 0 -20 7 -20 100 0 93 1 100 20 100 17 0 20
-7 20 -40z m660 0 l0 -40 50 0 50 0 0 40 c0 33 3 40 20 40 19 0 20 -7 20 -100
0 -93 -1 -100 -20 -100 -17 0 -20 7 -20 40 l0 40 -50 0 -50 0 0 -40 c0 -33 -3
-40 -20 -40 -19 0 -20 7 -20 100 0 93 1 100 20 100 17 0 20 -7 20 -40z"/>
<path d="M3293 1908 l1 -138 40 7 c23 3 43 7 45 9 2 1 -17 60 -42 131 l-45
128 1 -137z"/>
<path d="M4456 1454 c-10 -26 -7 -34 13 -34 14 0 18 5 14 20 -7 27 -20 34 -27
14z"/>
<path d="M4860 1431 l0 -71 40 0 c48 0 80 27 80 68 0 38 -29 62 -79 69 l-41 6
0 -72z"/>
<path d="M4650 1140 c-45 -45 -11 -120 54 -120 37 0 76 36 76 70 0 10 -9 29
-21 44 -26 33 -79 36 -109 6z"/>
<path d="M4895 1140 c-42 -46 -8 -120 54 -120 45 0 71 26 71 70 0 29 -6 43
-22 54 -32 22 -81 20 -103 -4z"/>
</g>
</svg>
